<svg aria-hidden="true" style="position: absolute; width: 0; height: 0; overflow: hidden;" version="1.1" xmlns="http://www.w3.org/2000/svg" xmlns:xlink="http://www.w3.org/1999/xlink">
<defs>
<symbol id="menu" viewBox="0 0 51 32">
<path fill="#ff3f3f" style="fill: var(--color1, #ff3f3f)" d="M2.4 0.8h46.4c1.325 0 2.4 1.075 2.4 2.4s-1.075 2.4-2.4 2.4h-46.4c-1.325 0-2.4-1.075-2.4-2.4s1.075-2.4 2.4-2.4z"></path>
<path fill="#ff3f3f" style="fill: var(--color1, #ff3f3f)" d="M23.2 13.6h25.6c1.325 0 2.4 1.075 2.4 2.4s-1.075 2.4-2.4 2.4h-25.6c-1.325 0-2.4-1.075-2.4-2.4s1.075-2.4 2.4-2.4z"></path>
<path fill="#ff3f3f" style="fill: var(--color1, #ff3f3f)" d="M2.4 26.4h46.4c1.325 0 2.4 1.075 2.4 2.4s-1.075 2.4-2.4 2.4h-46.4c-1.325 0-2.4-1.075-2.4-2.4s1.075-2.4 2.4-2.4z"></path>
</symbol>
</defs>
</svg>
